<svg width="48" height="48" viewBox="0 0 48 48" fill="none" xmlns="http://www.w3.org/2000/svg">
<path d="M32 40H10C8.89543 40 8 39.1046 8 38V22.28C8 21.7614 8.20151 21.263 8.562 20.89L19.562 9.49004C19.9389 9.09957 20.4583 8.87903 21.001 8.87903C21.5437 8.87903 22.0631 9.09957 22.44 9.49004L25.742 12.916L22.876 15.704L21 13.76L12 23.08V35.99H34V37.99C34.0027 38.5222 33.7931 39.0335 33.4178 39.4107C33.0424 39.788 32.5322 40 32 40ZM34 32H30V26H24V22H30V16H34V22H40V26H34V32Z" fill="#9E9E9E"/>
</svg>
