<svg width="48" height="48" viewBox="0 0 48 48" fill="none" xmlns="http://www.w3.org/2000/svg">
<path d="M24 44.0001C15.9071 44.0047 8.60898 39.1318 5.51132 31.6552C2.41367 24.1786 4.12708 15.5721 9.85199 9.85196C14.9066 4.79737 22.2738 2.82332 29.1785 4.67343C36.0832 6.52354 41.4764 11.9167 43.3265 18.8214C45.1766 25.7261 43.2026 33.0934 38.148 38.148C34.4029 41.91 29.3083 44.0173 24 44.0001ZM7.99999 24.344C8.09462 33.1464 15.2822 40.2191 24.0851 40.172C32.8879 40.1244 39.9991 32.9749 39.9991 24.172C39.9991 15.369 32.8879 8.21951 24.0851 8.17196C15.2822 8.12487 8.09462 15.1975 7.99999 24V24.344ZM18.818 32L16 29.18L21.18 24L16 18.82L18.82 16L24 21.18L29.18 16L32 18.82L26.82 24L32 29.18L29.182 32L24 26.82L18.82 32H18.818Z" fill="#2e3a59"/>
</svg>
