<svg width="48" height="48" viewBox="0 0 48 48" fill="none" xmlns="http://www.w3.org/2000/svg">
<path d="M10 42H6V40C6.00882 32.2717 12.2717 26.0088 20 26H28C35.7283 26.0088 41.9912 32.2717 42 40V42H38V40C37.9934 34.4799 33.5201 30.0066 28 30H20C14.4799 30.0066 10.0066 34.4799 10 40V42ZM24 24C18.4772 24 14 19.5228 14 14C14 8.47715 18.4772 4 24 4C29.5228 4 34 8.47715 34 14C33.9934 19.5201 29.5201 23.9934 24 24ZM24 8C20.6863 8 18 10.6863 18 14C18 17.3137 20.6863 20 24 20C27.3137 20 30 17.3137 30 14C30 10.6863 27.3137 8 24 8Z" fill="#9E9E9E"/>
</svg>
